<svg xmlns="http://www.w3.org/2000/svg" viewBox="0 0 100 100">
  <!-- Background circle -->
  <circle cx="50" cy="50" r="48" fill="#FF6B6B" stroke="#E55555" stroke-width="2"/>
  
  <!-- Cupcake base -->
  <rect x="35" y="60" width="30" height="15" fill="#8B4513" rx="2"/>
  
  <!-- Cupcake frosting -->
  <path d="M30 60 Q35 45 40 50 Q45 40 50 50 Q55 40 60 50 Q65 45 70 60 Q65 55 60 60 Q50 50 50 60 Q40 50 40 60 Q35 55 30 60" fill="#FFB6C1"/>
  
  <!-- Cherry on top -->
  <circle cx="50" cy="45" r="4" fill="#DC143C"/>
  <path d="M50 41 Q48 38 46 40" stroke="#228B22" stroke-width="2" fill="none"/>
  
  <!-- Decorative sprinkles -->
  <circle cx="42" cy="52" r="1.5" fill="#FFD700"/>
  <circle cx="58" cy="54" r="1.5" fill="#FF69B4"/>
  <circle cx="45" cy="58" r="1.5" fill="#00CED1"/>
  <circle cx="55" cy="56" r="1.5" fill="#FFA500"/>
  
  <!-- Sparkle effects -->
  <path d="M25 25 L27 27 L25 29 L23 27 Z" fill="#FFD700"/>
  <path d="M75 20 L77 22 L75 24 L73 22 Z" fill="#FFD700"/>
  <path d="M80 60 L82 62 L80 64 L78 62 Z" fill="#FFD700"/>
  <path d="M20 70 L22 72 L20 74 L18 72 Z" fill="#FFD700"/>
</svg>